<svg xmlns="http://www.w3.org/2000/svg" xmlns:xlink="http://www.w3.org/1999/xlink" xmlns:lucid="lucid" width="1760" height="1040"><g transform="translate(0 0)" lucid:page-tab-id="0_0"><path d="M0 0h1760v1040H0z" fill="#f2f2f2"/><path d="M120 263h360v200H120z" stroke="#000" stroke-width="2" fill="#fff"/><path d="M120 296h360M120 408h360" stroke="#000" stroke-width="2" fill="none"/><use xlink:href="#a" transform="matrix(1,0,0,1,128,263) translate(109.58984375 22.196614583333336)"/><use xlink:href="#b" transform="matrix(1,0,0,1,132,304.3333333333333) translate(0 35.55208333333333)"/><use xlink:href="#c" transform="matrix(1,0,0,1,132,304.3333333333333) translate(21.336805555555557 35.55208333333333)"/><use xlink:href="#b" transform="matrix(1,0,0,1,132,304.3333333333333) translate(0 53.329861111111114)"/><use xlink:href="#d" transform="matrix(1,0,0,1,132,304.3333333333333) translate(21.336805555555557 53.329861111111114)"/><use xlink:href="#b" transform="matrix(1,0,0,1,132,304.3333333333333) translate(0 71.10763888888889)"/><use xlink:href="#e" transform="matrix(1,0,0,1,132,304.3333333333333) translate(21.336805555555557 71.10763888888889)"/><use xlink:href="#f" transform="matrix(1,0,0,1,132,416.1612903225806) translate(0 24.896484375)"/><use xlink:href="#g" transform="matrix(1,0,0,1,132,416.1612903225806) translate(21.603515625 24.896484375)"/><path d="M580 140h200v80H580z" stroke="#000" stroke-width="2" fill="#fff"/><use xlink:href="#h" transform="matrix(1,0,0,1,588,148) translate(3.585611979166657 37.196614583333336)"/><path d="M1000 240h480v280h-480z" stroke="#000" stroke-width="2" fill="#fff"/><path d="M1000 273h480m-480 189h480" stroke="#000" stroke-width="2" fill="none"/><use xlink:href="#i" transform="matrix(1,0,0,1,1008,240) translate(143.58561197916666 22.196614583333336)"/><use xlink:href="#j" transform="matrix(1,0,0,1,1012,281.3333333333333) translate(0 40.19661458333332)"/><use xlink:href="#k" transform="matrix(1,0,0,1,1012,281.3333333333333) translate(20.803385416666668 40.19661458333332)"/><use xlink:href="#l" transform="matrix(1,0,0,1,1012,281.3333333333333) translate(0 57.52994791666666)"/><use xlink:href="#m" transform="matrix(1,0,0,1,1012,281.3333333333333) translate(20.803385416666668 57.52994791666666)"/><use xlink:href="#j" transform="matrix(1,0,0,1,1012,281.3333333333333) translate(0 74.86328125)"/><use xlink:href="#n" transform="matrix(1,0,0,1,1012,281.3333333333333) translate(20.803385416666668 74.86328125)"/><use xlink:href="#l" transform="matrix(1,0,0,1,1012,281.3333333333333) translate(0 92.19661458333333)"/><use xlink:href="#o" transform="matrix(1,0,0,1,1012,281.3333333333333) translate(20.803385416666668 92.19661458333333)"/><use xlink:href="#j" transform="matrix(1,0,0,1,1012,281.3333333333333) translate(0 109.52994791666666)"/><use xlink:href="#p" transform="matrix(1,0,0,1,1012,281.3333333333333) translate(20.803385416666668 109.52994791666666)"/><use xlink:href="#j" transform="matrix(1,0,0,1,1012,281.3333333333333) translate(0 126.86328125)"/><use xlink:href="#q" transform="matrix(1,0,0,1,1012,281.3333333333333) translate(20.803385416666668 126.86328125)"/><use xlink:href="#r" transform="matrix(1,0,0,1,1012,281.3333333333333) translate(145.62369791666666 126.86328125)"/><use xlink:href="#l" transform="matrix(1,0,0,1,1012,281.3333333333333) translate(0 144.19661458333334)"/><use xlink:href="#s" transform="matrix(1,0,0,1,1012,281.3333333333333) translate(20.803385416666668 144.19661458333334)"/><use xlink:href="#f" transform="matrix(1,0,0,1,1012,470.337760910816) translate(0 17.396484375)"/><use xlink:href="#t" transform="matrix(1,0,0,1,1012,470.337760910816) translate(21.603515625 17.396484375)"/><use xlink:href="#u" transform="matrix(1,0,0,1,1012,470.337760910816) translate(0 35.396484375)"/><use xlink:href="#v" transform="matrix(1,0,0,1,1012,470.337760910816) translate(21.603515625 35.396484375)"/><path d="M1240 239v-59H804.96" stroke="#000" stroke-width="2" fill="none"/><path d="M1241 240h-2v-1h2z"/><path d="M804.48 192.73L782.96 180l21.52-12.73z" fill="#fff"/><path d="M805.48 194.48L781 180l24.48-14.48zM784.93 180l18.55 10.97v-21.94z"/><path d="M300 262v-82h255.04" stroke="#000" stroke-width="2" fill="none"/><path d="M301 263h-2v-1h2z"/><path d="M577.04 180l-21.52 12.73v-25.46z" fill="#fff"/><path d="M579 180l-24.48 14.48v-28.96zm-22.48 10.97L575.07 180l-18.55-10.97z"/><path d="M500 483h420v234H500z" stroke="#000" stroke-width="2" fill="#fff"/><path d="M500 517h420m-420 49h420" stroke="#000" stroke-width="2" fill="none"/><use xlink:href="#w" transform="matrix(1,0,0,1,508,483) translate(142.59033203125 22.396484375)"/><use xlink:href="#x" transform="matrix(1,0,0,1,512,525) translate(0 21.896484375)"/><use xlink:href="#y" transform="matrix(1,0,0,1,512,525) translate(21.603515625 21.896484375)"/><use xlink:href="#z" transform="matrix(1,0,0,1,512,573.8038277511962) translate(0 37.729817708333336)"/><use xlink:href="#A" transform="matrix(1,0,0,1,512,573.8038277511962) translate(21.603515625 37.729817708333336)"/><use xlink:href="#B" transform="matrix(1,0,0,1,512,573.8038277511962) translate(240.03906250000006 37.729817708333336)"/><use xlink:href="#z" transform="matrix(1,0,0,1,512,573.8038277511962) translate(0 55.729817708333336)"/><use xlink:href="#C" transform="matrix(1,0,0,1,512,573.8038277511962) translate(21.603515625 55.729817708333336)"/><use xlink:href="#D" transform="matrix(1,0,0,1,512,573.8038277511962) translate(281.6458333333334 55.729817708333336)"/><use xlink:href="#E" transform="matrix(1,0,0,1,512,573.8038277511962) translate(0 73.72981770833334)"/><use xlink:href="#F" transform="matrix(1,0,0,1,512,573.8038277511962) translate(21.603515625 73.72981770833334)"/><use xlink:href="#E" transform="matrix(1,0,0,1,512,573.8038277511962) translate(0 91.72981770833334)"/><use xlink:href="#G" transform="matrix(1,0,0,1,512,573.8038277511962) translate(21.603515625 91.72981770833334)"/><use xlink:href="#H" transform="matrix(1,0,0,1,512,573.8038277511962) translate(219.63574218750006 91.72981770833334)"/><use xlink:href="#I" transform="matrix(1,0,0,1,512,573.8038277511962) translate(0 109.19661458333334)"/><path d="M580 263h200v77H580z" stroke="#000" stroke-width="2" fill="#fff"/><g><use xlink:href="#J" transform="matrix(1,0,0,1,588,271) translate(27.189453125 35.896484375)"/></g><path d="M579 301.5l-3.98.1-3.35.25-2.87.37-2.5.45-2.22.52-2 .56-1.8.63-1.68.66-1.56.72-1.46.77-1.4.83-1.35.9-1.32.98-1.3 1.08-1.34 1.22-1.4 1.4-1.5 1.7-1.82 2.27-3.1 4.32-5.8 8.26-1.95 2.45-1.7 1.88-1.55 1.58-1.52 1.4-1.52 1.25-1.54 1.15-1.6 1.07-1.7 1-1.78.94-1.93.9-2.1.84-2.3.8-1.85.53" stroke="#000" stroke-width="2" fill="none"/><path d="M580 302.4l-.9.1-.2-2 1.1-.12zM512.35 345.26l-14.14 15.82-15.8-13.84 13.85-15.8z"/><path d="M513.77 345.16l-15.47 17.32-17.3-15.15 15.15-17.3zm-29.95 2l14.3 12.5 12.8-14.3-14.57-12.5z"/><path d="M921 600l.5-.02.47-.04.48-.1.5-.1.5-.16.52-.2.54-.25.58-.3.6-.4.66-.47.7-.6.8-.75.88-.95 1-1.27 1.18-1.7 1.4-2.32 1.73-3.37 2.22-5.18 3.1-8.73 5.12-18.44 6.86-30 .18-.87.18-1.08.15-1.35.13-1.74.07-2.34-.04-3.32-.3-5.17-.97-10-7.4-61.48-.62-11.62-.1-8.7.22-6.92.4-5.65.56-4.74.64-4.04.7-3.48.74-3.05.78-2.68.8-2.4.82-2.13.84-1.93.85-1.76.85-1.6.87-1.47.88-1.35.88-1.24.9-1.16.92-1.08.92-1 .94-.95.98-.9.98-.83 1-.78 1.04-.75 1.07-.7 1.1-.64 1.15-.6 1.2-.58 1.23-.54 1.16-.44" stroke="#000" stroke-width="2" fill="none"/><path d="M921.64 600.77l-1.64 1.36v-2.6l.36-.3zM997.6 361.36l-14.72 15-15.3-14.72 15.02-15z"/><path d="M999 361.35l-16.1 16.4-16.74-16.1 16.43-16.4zm-29.98.28l13.84 13.3 13.3-13.55-13.56-13.32z"/><path d="M580 360h200v77H580z" stroke="#000" stroke-width="2" fill="#fff"/><g><use xlink:href="#K" transform="matrix(1,0,0,1,588,368) translate(59.5947265625 35.896484375)"/></g><path d="M579 398.5l-12.34-.3-9.22-.7-7.7-.98-7.47-1.35-30-6.74" stroke="#000" stroke-width="2" fill="none"/><path d="M580 397.53v2l-1.03-.03.06-2zM512.32 388.43l-16.26 13.63-13.65-15.95 15.97-13.64z"/><path d="M513.74 388.54l-17.8 14.93L481 386l17.47-14.95zm-29.92-2.32l12.36 14.44 14.72-12.34-12.64-14.46z"/><path d="M781 398.5l91.98 1.73 65.53 1.7c.08-2.78 2.38-4.96 5.14-4.88 2.76.07 4.94 2.36 4.87 5.12l19.1.5" stroke="#000" stroke-width="2" fill="none"/><path d="M781.02 397.5l-.04 2-.98-.02v-2zM997.6 403.43l-15.24 14.47-14.76-15.24 15.52-14.45z"/><path d="M999 403.47l-16.67 15.83-16.16-16.67 17-15.83zm-29.98-.77l13.37 13.8 13.77-13.1-13.1-13.8z"/><path d="M1080 620h420v157h-420z" stroke="#000" stroke-width="2" fill="#fff"/><path d="M1080 653h420m-420 50h420" stroke="#000" stroke-width="2" fill="none"/><g><use xlink:href="#L" transform="matrix(1,0,0,1,1088,620) translate(82.38053385416663 22.196614583333336)"/></g><g><use xlink:href="#z" transform="matrix(1,0,0,1,1092,710.6067708333334) translate(0 26.229817708333332)"/><use xlink:href="#M" transform="matrix(1,0,0,1,1092,710.6067708333334) translate(21.603515625 26.229817708333332)"/><use xlink:href="#N" transform="matrix(1,0,0,1,1092,710.6067708333334) translate(0 43.696614583333336)"/><use xlink:href="#O" transform="matrix(1,0,0,1,1092,710.6067708333334) translate(239.23893229166674 43.696614583333336)"/></g><path d="M1501 698.5l1.63-.03 1.57-.1 1.54-.16 1.5-.22 1.48-.28 1.45-.34 1.43-.4 1.43-.46 1.4-.53 1.43-.6 1.4-.66 1.43-.73 1.43-.83 1.45-.92 1.46-1.02 1.5-1.14 1.53-1.26 1.56-1.4 1.6-1.58 1.66-1.77 1.7-1.98 1.78-2.25 1.85-2.55 1.94-2.9 2.02-3.36 2.13-3.87 2.24-4.53 2.37-5.33 2.5-6.34 2.66-7.63 2.8-9.28 2.92-11.44 3.03-14.3 3.05-18.17 2.93-23.37 2.52-30.33 1.6-38.93-.02-46.73-1.43-37.74-2.2-27.92-1.58-11.42-1.33-6.74-1.2-4.58-1.06-3.37-1-2.6-.95-2.12-.92-1.75-.88-1.5-.86-1.27-.86-1.14-.86-1-.87-.92-.9-.84-.9-.76-.96-.7-1-.67-1.08-.6-1.16-.6-1.28-.56-1.42-.53-1.63-.5-1.9-.47-2.33-.43-2.98-.4-4.2-.3-7.4-.1-13.42.38" stroke="#000" stroke-width="2" fill="none"/><path d="M1501.2 699.48l-1.2.25v-2.04l.8-.18zM1512.4 339.58l-14.72 15.27-15.27-14.42 14.43-15.26z"/><path d="M1513.83 339.54l-16.12 16.72-16.7-15.8 15.8-16.7zm-30 .85l13.82 13.04 13.32-13.82-14.1-13.05z"/><defs><path d="M285-1169c8 382 2 780 4 1169H129v-1349h237c86 239 188 461 253 720 69-258 169-481 255-720h225V0H937c2-390-5-788 6-1169-75 255-170 488-259 729H547c-90-240-185-475-262-729" id="P"/><path d="M1000-272c3 95 12 159 101 161 21 0 41-3 59-7V-6c-44 10-86 16-139 16-141 2-191-84-197-217h-6C748-76 648 20 446 20c-207 0-318-120-318-322 0-266 194-348 454-354l236-4c12-191-40-305-222-305-140 0-220 47-232 172l-188-17c33-204 181-292 423-292 255 0 401 118 401 364v466zm-683-27c0 109 63 184 175 182 166-3 259-96 306-217 24-65 20-120 20-200-232 7-501-28-501 235" id="Q"/><path d="M745-142h380V0H143v-142h422v-798H246v-142h499v940zM545-1292v-192h200v192H545" id="R"/><path d="M706-1102c241 0 344 136 343 381V0H868v-695c1-168-57-273-220-268-190 6-283 138-283 336V0H185c-3-360 6-732-6-1082h170c4 54 7 126 8 185h3c63-121 164-204 346-205" id="S"/><path d="M1034 0L896-382H333L196 0H0l510-1349h217L1228 0h-194zM847-531c-77-225-157-447-231-674-69 231-154 451-232 674h463" id="T"/><path d="M631 20c-350 0-501-215-501-562 0-355 162-560 502-560 250 0 399 118 446 323l-192 14c-23-124-109-196-262-196-242 0-305 171-305 415 1 245 61 427 304 427 151 0 248-77 267-215l190 12C1039-107 883 20 631 20" id="U"/><path d="M682 16c-209 0-323-80-324-285v-671H190v-142h170l58-282h120v282h432v142H538v652c2 114 60 155 182 155 106 0 209-16 297-34v137C921-4 806 16 682 16" id="V"/><path d="M715 0H502L69-1082h202c94 253 197 500 285 758 19 57 36 126 52 183 96-335 234-626 350-941h201" id="W"/><path d="M168 279c222 39 310-114 368-290L66-1082h192c120 299 249 590 362 896 115-301 235-597 351-896h190L705 0c-65 164-130 320-275 396-67 36-177 35-262 18V279" id="X"/><g id="a"><use transform="matrix(0.008463541666666668,0,0,0.008463541666666668,0,0)" xlink:href="#P"/><use transform="matrix(0.008463541666666668,0,0,0.008463541666666668,10.401692708333334,0)" xlink:href="#Q"/><use transform="matrix(0.008463541666666668,0,0,0.008463541666666668,20.803385416666668,0)" xlink:href="#R"/><use transform="matrix(0.008463541666666668,0,0,0.008463541666666668,31.205078125,0)" xlink:href="#S"/><use transform="matrix(0.008463541666666668,0,0,0.008463541666666668,41.606770833333336,0)" xlink:href="#T"/><use transform="matrix(0.008463541666666668,0,0,0.008463541666666668,52.00846354166667,0)" xlink:href="#U"/><use transform="matrix(0.008463541666666668,0,0,0.008463541666666668,62.41015625000001,0)" xlink:href="#V"/><use transform="matrix(0.008463541666666668,0,0,0.008463541666666668,72.81184895833334,0)" xlink:href="#R"/><use transform="matrix(0.008463541666666668,0,0,0.008463541666666668,83.21354166666667,0)" xlink:href="#W"/><use transform="matrix(0.008463541666666668,0,0,0.008463541666666668,93.615234375,0)" xlink:href="#R"/><use transform="matrix(0.008463541666666668,0,0,0.008463541666666668,104.01692708333333,0)" xlink:href="#V"/><use transform="matrix(0.008463541666666668,0,0,0.008463541666666668,114.41861979166666,0)" xlink:href="#X"/></g><path d="M334-464v-160h560v160H334" id="Y"/><use transform="matrix(0.008680555555555556,0,0,0.008680555555555556,0,0)" xlink:href="#Y" id="b"/><path d="M873-819c-18-114-119-146-250-146-163 0-245 50-245 151 0 151 170 148 294 185 182 54 388 94 388 320 0 240-189 325-439 329-245 4-410-69-454-268l159-31c24 133 136 168 295 165 144-2 270-31 270-171 0-164-195-160-331-202-167-52-350-87-350-299 0-218 173-315 413-313 220 2 373 77 412 260" id="Z"/><path d="M698-1104c312 3 392 244 392 558 0 315-82 566-392 566-169 0-277-65-331-184h-5c8 188 2 394 4 589H185V-858c0-76-1-156-6-224h175c6 52 9 120 10 178h4c58-122 150-202 330-200zm-49 991c225 0 255-203 255-433 0-225-32-419-253-419-236 0-285 192-285 441 0 237 53 411 283 411" id="aa"/><path d="M617-1102c355 0 481 238 477 599H322c5 222 84 388 301 388 144 0 244-59 284-166l158 45C1002-72 854 20 623 20c-342 0-490-220-490-568 0-346 151-554 484-554zm291 461c-18-192-90-328-289-328-194 0-287 128-295 328h584" id="ab"/><path d="M839-1102c70 0 148 7 206 17v167c-112-18-268-36-363 15-129 69-208 203-208 395V0H294c-10-367 32-789-52-1082h171c21 75 41 161 48 250h5c67-152 152-270 373-270" id="ac"/><path d="M496 0v-299h235V0H496zm0-783v-299h235v299H496" id="ad"/><path d="M237 0v-1349h191v1193h672V0H237" id="ae"/><path d="M116-571v-205l995-418v154L253-674l858 367v153" id="af"/><path d="M614-1226c-167 1-283 53-283 213 0 183 186 193 334 234 230 63 463 120 463 409 0 286-219 387-518 390C309 23 131-98 79-338l185-37c34 165 149 248 351 246 184-2 324-58 324-238 0-203-207-221-372-266-210-57-422-111-422-377 0-267 201-356 470-360 279-5 430 101 480 324l-188 33c-28-141-121-215-293-213" id="ag"/><path d="M1048-32c-2 300-135 456-433 456-222-1-358-88-400-267l184-25c22 99 100 157 222 156 184-2 248-125 248-315 0-64 3-133-2-194C807-100 706-13 524-12c-306 0-381-228-381-537 0-318 85-550 400-550 164 0 271 83 325 202h3c1-60 3-134 12-185h171c-13 339-4 702-6 1050zM585-145c210-8 284-178 284-406 0-192-52-331-177-392-33-16-69-22-104-22-223 2-259 184-259 414 0 229 31 415 256 406" id="ah"/><path d="M116-154v-153l858-367-858-366v-154l995 418v205" id="ai"/><g id="c"><use transform="matrix(0.008680555555555556,0,0,0.008680555555555556,0,0)" xlink:href="#Z"/><use transform="matrix(0.008680555555555556,0,0,0.008680555555555556,10.668402777777779,0)" xlink:href="#aa"/><use transform="matrix(0.008680555555555556,0,0,0.008680555555555556,21.336805555555557,0)" xlink:href="#R"/><use transform="matrix(0.008680555555555556,0,0,0.008680555555555556,32.005208333333336,0)" xlink:href="#S"/><use transform="matrix(0.008680555555555556,0,0,0.008680555555555556,42.673611111111114,0)" xlink:href="#S"/><use transform="matrix(0.008680555555555556,0,0,0.008680555555555556,53.34201388888889,0)" xlink:href="#ab"/><use transform="matrix(0.008680555555555556,0,0,0.008680555555555556,64.01041666666667,0)" xlink:href="#ac"/><use transform="matrix(0.008680555555555556,0,0,0.008680555555555556,74.67881944444446,0)" xlink:href="#T"/><use transform="matrix(0.008680555555555556,0,0,0.008680555555555556,85.34722222222223,0)" xlink:href="#ac"/><use transform="matrix(0.008680555555555556,0,0,0.008680555555555556,96.015625,0)" xlink:href="#ac"/><use transform="matrix(0.008680555555555556,0,0,0.008680555555555556,106.68402777777777,0)" xlink:href="#Q"/><use transform="matrix(0.008680555555555556,0,0,0.008680555555555556,117.35243055555554,0)" xlink:href="#X"/><use transform="matrix(0.008680555555555556,0,0,0.008680555555555556,128.02083333333331,0)" xlink:href="#ad"/><use transform="matrix(0.008463541666666668,0,0,0.008463541666666668,138.6892361111111,0)" xlink:href="#ae"/><use transform="matrix(0.008463541666666668,0,0,0.008463541666666668,149.0909288194444,0)" xlink:href="#R"/><use transform="matrix(0.008463541666666668,0,0,0.008463541666666668,159.49262152777777,0)" xlink:href="#Z"/><use transform="matrix(0.008463541666666668,0,0,0.008463541666666668,169.89431423611111,0)" xlink:href="#V"/><use transform="matrix(0.008463541666666668,0,0,0.008463541666666668,180.29600694444446,0)" xlink:href="#af"/><use transform="matrix(0.008463541666666668,0,0,0.008463541666666668,190.69769965277783,0)" xlink:href="#ag"/><use transform="matrix(0.008463541666666668,0,0,0.008463541666666668,201.09939236111114,0)" xlink:href="#V"/><use transform="matrix(0.008463541666666668,0,0,0.008463541666666668,211.50108506944449,0)" xlink:href="#ac"/><use transform="matrix(0.008463541666666668,0,0,0.008463541666666668,221.90277777777783,0)" xlink:href="#R"/><use transform="matrix(0.008463541666666668,0,0,0.008463541666666668,232.30447048611117,0)" xlink:href="#S"/><use transform="matrix(0.008463541666666668,0,0,0.008463541666666668,242.7061631944445,0)" xlink:href="#ah"/><use transform="matrix(0.008463541666666668,0,0,0.008463541666666668,253.10785590277786,0)" xlink:href="#ai"/></g><path d="M865-914c-3-187-2-380-2-570h180v1261c0 76 1 155 6 223H877c-8-49-9-116-10-174h-5C801-44 708 26 530 26c-135 0-234-46-297-139s-95-232-95-419c0-377 131-566 392-566 176 0 271 63 335 184zm-286-51c-222 0-255 197-255 427 0 229 31 425 253 425 237 0 286-195 286-441 0-238-52-411-284-411" id="aj"/><g id="d"><use transform="matrix(0.008680555555555556,0,0,0.008680555555555556,0,0)" xlink:href="#Q"/><use transform="matrix(0.008680555555555556,0,0,0.008680555555555556,10.668402777777779,0)" xlink:href="#aj"/><use transform="matrix(0.008680555555555556,0,0,0.008680555555555556,21.336805555555557,0)" xlink:href="#Q"/><use transform="matrix(0.008680555555555556,0,0,0.008680555555555556,32.005208333333336,0)" xlink:href="#aa"/><use transform="matrix(0.008680555555555556,0,0,0.008680555555555556,42.673611111111114,0)" xlink:href="#V"/><use transform="matrix(0.008680555555555556,0,0,0.008680555555555556,53.34201388888889,0)" xlink:href="#ab"/><use transform="matrix(0.008680555555555556,0,0,0.008680555555555556,64.01041666666667,0)" xlink:href="#ac"/><use transform="matrix(0.008680555555555556,0,0,0.008680555555555556,74.67881944444446,0)" xlink:href="#ad"/><use transform="matrix(0.008463541666666668,0,0,0.008463541666666668,85.34722222222221,0)" xlink:href="#T"/><use transform="matrix(0.008463541666666668,0,0,0.008463541666666668,95.74891493055556,0)" xlink:href="#ac"/><use transform="matrix(0.008463541666666668,0,0,0.008463541666666668,106.15060763888889,0)" xlink:href="#ac"/><use transform="matrix(0.008463541666666668,0,0,0.008463541666666668,116.55230034722221,0)" xlink:href="#Q"/><use transform="matrix(0.008463541666666668,0,0,0.008463541666666668,126.95399305555554,0)" xlink:href="#X"/><use transform="matrix(0.008463541666666668,0,0,0.008463541666666668,137.35568576388889,0)" xlink:href="#T"/><use transform="matrix(0.008463541666666668,0,0,0.008463541666666668,147.75737847222223,0)" xlink:href="#aj"/><use transform="matrix(0.008463541666666668,0,0,0.008463541666666668,158.15907118055557,0)" xlink:href="#Q"/><use transform="matrix(0.008463541666666668,0,0,0.008463541666666668,168.56076388888889,0)" xlink:href="#aa"/><use transform="matrix(0.008463541666666668,0,0,0.008463541666666668,178.96245659722226,0)" xlink:href="#V"/><use transform="matrix(0.008463541666666668,0,0,0.008463541666666668,189.3641493055556,0)" xlink:href="#ab"/><use transform="matrix(0.008463541666666668,0,0,0.008463541666666668,199.76584201388894,0)" xlink:href="#ac"/><use transform="matrix(0.008463541666666668,0,0,0.008463541666666668,210.1675347222223,0)" xlink:href="#af"/><use transform="matrix(0.008463541666666668,0,0,0.008463541666666668,220.56922743055563,0)" xlink:href="#ag"/><use transform="matrix(0.008463541666666668,0,0,0.008463541666666668,230.97092013888897,0)" xlink:href="#V"/><use transform="matrix(0.008463541666666668,0,0,0.008463541666666668,241.3726128472223,0)" xlink:href="#ac"/><use transform="matrix(0.008463541666666668,0,0,0.008463541666666668,251.77430555555566,0)" xlink:href="#R"/><use transform="matrix(0.008463541666666668,0,0,0.008463541666666668,262.17599826388897,0)" xlink:href="#S"/><use transform="matrix(0.008463541666666668,0,0,0.008463541666666668,272.5776909722223,0)" xlink:href="#ah"/><use transform="matrix(0.008463541666666668,0,0,0.008463541666666668,282.9793836805556,0)" xlink:href="#ai"/></g><path d="M802-711c201 25 350 118 350 331C1152-95 921 0 634 0H162v-1349c401 9 908-74 908 327 0 184-111 275-268 311zm-224-69c174-2 300-51 300-218 0-163-124-198-302-198H353v416h225zM353-153c281-2 612 44 606-244-5-271-329-233-606-234v478" id="ak"/><path d="M528 20c-247 0-343-132-343-381v-721h180v686c-4 177 45 284 224 277 194-8 279-136 279-336v-627h181c3 360-6 732 6 1082H885c-4-54-7-126-8-185h-3C809-64 714 20 528 20" id="al"/><path d="M615-1102c343 0 484 203 482 560-1 347-147 562-488 562-336 0-475-219-479-562-4-349 156-560 485-560zm-8 989c240 0 301-180 301-429 0-245-55-427-290-427-236 0-299 181-299 427 0 243 61 429 288 429" id="am"/><g id="e"><use transform="matrix(0.008680555555555556,0,0,0.008680555555555556,0,0)" xlink:href="#Z"/><use transform="matrix(0.008680555555555556,0,0,0.008680555555555556,10.668402777777779,0)" xlink:href="#V"/><use transform="matrix(0.008680555555555556,0,0,0.008680555555555556,21.336805555555557,0)" xlink:href="#Q"/><use transform="matrix(0.008680555555555556,0,0,0.008680555555555556,32.005208333333336,0)" xlink:href="#ac"/><use transform="matrix(0.008680555555555556,0,0,0.008680555555555556,42.673611111111114,0)" xlink:href="#V"/><use transform="matrix(0.008680555555555556,0,0,0.008680555555555556,53.34201388888889,0)" xlink:href="#ak"/><use transform="matrix(0.008680555555555556,0,0,0.008680555555555556,64.01041666666667,0)" xlink:href="#al"/><use transform="matrix(0.008680555555555556,0,0,0.008680555555555556,74.67881944444446,0)" xlink:href="#V"/><use transform="matrix(0.008680555555555556,0,0,0.008680555555555556,85.34722222222223,0)" xlink:href="#V"/><use transform="matrix(0.008680555555555556,0,0,0.008680555555555556,96.015625,0)" xlink:href="#am"/><use transform="matrix(0.008680555555555556,0,0,0.008680555555555556,106.68402777777777,0)" xlink:href="#S"/><use transform="matrix(0.008680555555555556,0,0,0.008680555555555556,117.35243055555554,0)" xlink:href="#ad"/><use transform="matrix(0.008680555555555556,0,0,0.008680555555555556,128.02083333333331,0)" xlink:href="#ak"/><use transform="matrix(0.008680555555555556,0,0,0.008680555555555556,138.6892361111111,0)" xlink:href="#al"/><use transform="matrix(0.008680555555555556,0,0,0.008680555555555556,149.35763888888886,0)" xlink:href="#V"/><use transform="matrix(0.008680555555555556,0,0,0.008680555555555556,160.02604166666663,0)" xlink:href="#V"/><use transform="matrix(0.008680555555555556,0,0,0.008680555555555556,170.6944444444444,0)" xlink:href="#am"/><use transform="matrix(0.008680555555555556,0,0,0.008680555555555556,181.36284722222217,0)" xlink:href="#S"/></g><path d="M930-833l-67 317h260v108H840L752 0H642l86-408H365L281 0H171l84-408H54v-108h225l67-317H105v-108h263l89-408h110l-88 408h363l88-408h110l-88 408h211v108H930zm-471 0l-69 317h362l67-317H459" id="an"/><use transform="matrix(0.0087890625,0,0,0.0087890625,0,0)" xlink:href="#an" id="f"/><path d="M1044 94c-116 96-242 189-450 189-304 0-446-213-512-468-90-345-18-804 126-1023 99-150 236-276 464-276 292 0 429 206 486 450 73 310 31 729-145 882-38 32-81 48-129 48-111 1-154-78-141-195h-6c-43 98-102 195-235 195-186 0-225-192-225-385 0-224 63-403 173-521 46-50 107-91 194-91 117 0 160 79 184 173h5l32-151h116c-45 245-103 479-136 733-8 62-9 140 46 140 75 0 105-78 129-152 53-166 68-445 22-636-33-142-99-259-202-326-112-74-280-58-384 19-199 148-286 441-286 787 0 288 75 520 251 630 53 33 115 49 183 49 172-2 274-77 369-158zM753-595c28-145 53-404-107-404-137 0-173 153-206 275-34 123-44 312-4 434 14 43 39 80 90 80 118 0 154-122 191-226 17-47 25-101 36-159" id="ao"/><path d="M650-1214c-281 0-336 244-336 533 0 295 60 546 347 546 188 0 263-142 322-282l159 65C1058-155 935 20 659 20c-401 0-546-295-546-701 0-407 135-689 536-689 264 0 391 146 466 335l-168 65c-47-129-127-244-297-244" id="ap"/><path d="M891-1484c-201 251-362 514-362 954 0 441 161 704 362 955H701C500 176 342-90 342-532c0-440 159-704 359-952h190" id="aq"/><path d="M528-1484c201 248 357 511 357 952 0 442-156 709-357 957H336C537 174 700-89 700-530c0-440-163-703-364-954h192" id="ar"/><g id="g"><use transform="matrix(0.0087890625,0,0,0.0087890625,0,0)" xlink:href="#ao"/><use transform="matrix(0.008463541666666668,0,0,0.008463541666666668,10.801757812499998,0)" xlink:href="#am"/><use transform="matrix(0.008463541666666668,0,0,0.008463541666666668,21.203450520833332,0)" xlink:href="#S"/><use transform="matrix(0.008463541666666668,0,0,0.008463541666666668,31.60514322916667,0)" xlink:href="#ap"/><use transform="matrix(0.008463541666666668,0,0,0.008463541666666668,42.0068359375,0)" xlink:href="#ac"/><use transform="matrix(0.008463541666666668,0,0,0.008463541666666668,52.40852864583334,0)" xlink:href="#ab"/><use transform="matrix(0.008463541666666668,0,0,0.008463541666666668,62.81022135416668,0)" xlink:href="#Q"/><use transform="matrix(0.008463541666666668,0,0,0.008463541666666668,73.21191406250001,0)" xlink:href="#V"/><use transform="matrix(0.008463541666666668,0,0,0.008463541666666668,83.61360677083334,0)" xlink:href="#ab"/><use transform="matrix(0.008463541666666668,0,0,0.008463541666666668,94.01529947916667,0)" xlink:href="#aq"/><use transform="matrix(0.008463541666666668,0,0,0.008463541666666668,104.4169921875,0)" xlink:href="#ar"/></g><path d="M904-1102c199 0 220 177 220 381V0H956v-686c-3-114 0-215-60-264-70-33-125-4-158 71-26 56-39 140-39 252V0H531v-686c-3-114-1-215-61-264-78-41-136 24-157 84-24 69-39 159-39 259V0H105c-3-360 6-732-6-1082h149c6 50 3 123 8 175 36-100 83-195 216-195 135 0 166 79 196 196 42-105 93-196 236-196" id="as"/><g id="h"><use transform="matrix(0.008463541666666668,0,0,0.008463541666666668,0,0)" xlink:href="#T"/><use transform="matrix(0.008463541666666668,0,0,0.008463541666666668,10.401692708333334,0)" xlink:href="#aa"/><use transform="matrix(0.008463541666666668,0,0,0.008463541666666668,20.803385416666668,0)" xlink:href="#aa"/><use transform="matrix(0.008463541666666668,0,0,0.008463541666666668,31.205078125,0)" xlink:href="#ap"/><use transform="matrix(0.008463541666666668,0,0,0.008463541666666668,41.606770833333336,0)" xlink:href="#am"/><use transform="matrix(0.008463541666666668,0,0,0.008463541666666668,52.00846354166667,0)" xlink:href="#as"/><use transform="matrix(0.008463541666666668,0,0,0.008463541666666668,62.41015625000001,0)" xlink:href="#aa"/><use transform="matrix(0.008463541666666668,0,0,0.008463541666666668,72.81184895833334,0)" xlink:href="#Q"/><use transform="matrix(0.008463541666666668,0,0,0.008463541666666668,83.21354166666667,0)" xlink:href="#V"/><use transform="matrix(0.008463541666666668,0,0,0.008463541666666668,93.615234375,0)" xlink:href="#T"/><use transform="matrix(0.008463541666666668,0,0,0.008463541666666668,104.01692708333333,0)" xlink:href="#U"/><use transform="matrix(0.008463541666666668,0,0,0.008463541666666668,114.41861979166666,0)" xlink:href="#V"/><use transform="matrix(0.008463541666666668,0,0,0.008463541666666668,124.82031249999999,0)" xlink:href="#R"/><use transform="matrix(0.008463541666666668,0,0,0.008463541666666668,135.22200520833331,0)" xlink:href="#W"/><use transform="matrix(0.008463541666666668,0,0,0.008463541666666668,145.62369791666666,0)" xlink:href="#R"/><use transform="matrix(0.008463541666666668,0,0,0.008463541666666668,156.025390625,0)" xlink:href="#V"/><use transform="matrix(0.008463541666666668,0,0,0.008463541666666668,166.42708333333334,0)" xlink:href="#X"/></g><path d="M655-135c108 0 195-33 260-74v-336H622v-160h479v572C981-54 839 20 639 20c-388 0-526-306-526-701 0-406 129-689 529-689 261 0 392 137 461 331l-171 56c-47-131-122-231-288-231-281 0-330 245-330 533 0 179 28 314 84 407s142 139 257 139" id="at"/><g id="i"><use transform="matrix(0.008463541666666668,0,0,0.008463541666666668,0,0)" xlink:href="#ak"/><use transform="matrix(0.008463541666666668,0,0,0.008463541666666668,10.401692708333334,0)" xlink:href="#am"/><use transform="matrix(0.008463541666666668,0,0,0.008463541666666668,20.803385416666668,0)" xlink:href="#Q"/><use transform="matrix(0.008463541666666668,0,0,0.008463541666666668,31.205078125,0)" xlink:href="#ac"/><use transform="matrix(0.008463541666666668,0,0,0.008463541666666668,41.606770833333336,0)" xlink:href="#aj"/><use transform="matrix(0.008463541666666668,0,0,0.008463541666666668,52.00846354166667,0)" xlink:href="#at"/><use transform="matrix(0.008463541666666668,0,0,0.008463541666666668,62.41015625000001,0)" xlink:href="#Q"/><use transform="matrix(0.008463541666666668,0,0,0.008463541666666668,72.81184895833334,0)" xlink:href="#as"/><use transform="matrix(0.008463541666666668,0,0,0.008463541666666668,83.21354166666667,0)" xlink:href="#ab"/><use transform="matrix(0.008463541666666668,0,0,0.008463541666666668,93.615234375,0)" xlink:href="#T"/><use transform="matrix(0.008463541666666668,0,0,0.008463541666666668,104.01692708333333,0)" xlink:href="#U"/><use transform="matrix(0.008463541666666668,0,0,0.008463541666666668,114.41861979166666,0)" xlink:href="#V"/><use transform="matrix(0.008463541666666668,0,0,0.008463541666666668,124.82031249999999,0)" xlink:href="#R"/><use transform="matrix(0.008463541666666668,0,0,0.008463541666666668,135.22200520833331,0)" xlink:href="#W"/><use transform="matrix(0.008463541666666668,0,0,0.008463541666666668,145.62369791666666,0)" xlink:href="#R"/><use transform="matrix(0.008463541666666668,0,0,0.008463541666666668,156.025390625,0)" xlink:href="#V"/><use transform="matrix(0.008463541666666668,0,0,0.008463541666666668,166.42708333333334,0)" xlink:href="#X"/></g><use transform="matrix(0.008463541666666668,0,0,0.008463541666666668,0,0)" xlink:href="#Y" id="j"/><g id="k"><use transform="matrix(0.008463541666666668,0,0,0.008463541666666668,0,0)" xlink:href="#ah"/><use transform="matrix(0.008463541666666668,0,0,0.008463541666666668,10.401692708333334,0)" xlink:href="#Q"/><use transform="matrix(0.008463541666666668,0,0,0.008463541666666668,20.803385416666668,0)" xlink:href="#as"/><use transform="matrix(0.008463541666666668,0,0,0.008463541666666668,31.205078125,0)" xlink:href="#ab"/><use transform="matrix(0.008463541666666668,0,0,0.008463541666666668,41.606770833333336,0)" xlink:href="#ad"/><use transform="matrix(0.008463541666666668,0,0,0.008463541666666668,52.00846354166667,0)" xlink:href="#at"/><use transform="matrix(0.008463541666666668,0,0,0.008463541666666668,62.41015625000001,0)" xlink:href="#Q"/><use transform="matrix(0.008463541666666668,0,0,0.008463541666666668,72.81184895833334,0)" xlink:href="#as"/><use transform="matrix(0.008463541666666668,0,0,0.008463541666666668,83.21354166666667,0)" xlink:href="#ab"/></g><use transform="matrix(0.008463541666666668,0,0,0.008463541666666668,0,0)" xlink:href="#Y" id="l"/><path d="M736-142h380V0H134v-142h422v-1200H267v-142h469v1342" id="au"/><path d="M709-1193V0H519v-1193H76v-156h1076v156H709" id="av"/><g id="m"><use transform="matrix(0.008463541666666668,0,0,0.008463541666666668,0,0)" xlink:href="#V"/><use transform="matrix(0.008463541666666668,0,0,0.008463541666666668,10.401692708333334,0)" xlink:href="#ac"/><use transform="matrix(0.008463541666666668,0,0,0.008463541666666668,20.803385416666668,0)" xlink:href="#Q"/><use transform="matrix(0.008463541666666668,0,0,0.008463541666666668,31.205078125,0)" xlink:href="#S"/><use transform="matrix(0.008463541666666668,0,0,0.008463541666666668,41.606770833333336,0)" xlink:href="#Z"/><use transform="matrix(0.008463541666666668,0,0,0.008463541666666668,52.00846354166667,0)" xlink:href="#au"/><use transform="matrix(0.008463541666666668,0,0,0.008463541666666668,62.41015625000001,0)" xlink:href="#Q"/><use transform="matrix(0.008463541666666668,0,0,0.008463541666666668,72.81184895833334,0)" xlink:href="#V"/><use transform="matrix(0.008463541666666668,0,0,0.008463541666666668,83.21354166666667,0)" xlink:href="#am"/><use transform="matrix(0.008463541666666668,0,0,0.008463541666666668,93.615234375,0)" xlink:href="#ac"/><use transform="matrix(0.008463541666666668,0,0,0.008463541666666668,104.01692708333333,0)" xlink:href="#ad"/><use transform="matrix(0.008463541666666668,0,0,0.008463541666666668,114.41861979166666,0)" xlink:href="#T"/><use transform="matrix(0.008463541666666668,0,0,0.008463541666666668,124.82031249999999,0)" xlink:href="#S"/><use transform="matrix(0.008463541666666668,0,0,0.008463541666666668,135.22200520833331,0)" xlink:href="#aj"/><use transform="matrix(0.008463541666666668,0,0,0.008463541666666668,145.62369791666666,0)" xlink:href="#ac"/><use transform="matrix(0.008463541666666668,0,0,0.008463541666666668,156.025390625,0)" xlink:href="#am"/><use transform="matrix(0.008463541666666668,0,0,0.008463541666666668,166.42708333333334,0)" xlink:href="#R"/><use transform="matrix(0.008463541666666668,0,0,0.008463541666666668,176.82877604166669,0)" xlink:href="#aj"/><use transform="matrix(0.008463541666666668,0,0,0.008463541666666668,187.23046875000003,0)" xlink:href="#av"/><use transform="matrix(0.008463541666666668,0,0,0.008463541666666668,197.63216145833337,0)" xlink:href="#am"/><use transform="matrix(0.008463541666666668,0,0,0.008463541666666668,208.0338541666667,0)" xlink:href="#at"/><use transform="matrix(0.008463541666666668,0,0,0.008463541666666668,218.43554687500006,0)" xlink:href="#Q"/><use transform="matrix(0.008463541666666668,0,0,0.008463541666666668,228.8372395833334,0)" xlink:href="#as"/><use transform="matrix(0.008463541666666668,0,0,0.008463541666666668,239.23893229166674,0)" xlink:href="#ab"/><use transform="matrix(0.008463541666666668,0,0,0.008463541666666668,249.64062500000009,0)" xlink:href="#av"/><use transform="matrix(0.008463541666666668,0,0,0.008463541666666668,260.0423177083334,0)" xlink:href="#ac"/><use transform="matrix(0.008463541666666668,0,0,0.008463541666666668,270.44401041666674,0)" xlink:href="#Q"/><use transform="matrix(0.008463541666666668,0,0,0.008463541666666668,280.84570312500006,0)" xlink:href="#S"/><use transform="matrix(0.008463541666666668,0,0,0.008463541666666668,291.24739583333337,0)" xlink:href="#Z"/><use transform="matrix(0.008463541666666668,0,0,0.008463541666666668,301.6490885416667,0)" xlink:href="#au"/><use transform="matrix(0.008463541666666668,0,0,0.008463541666666668,312.05078125,0)" xlink:href="#Q"/><use transform="matrix(0.008463541666666668,0,0,0.008463541666666668,322.4524739583333,0)" xlink:href="#V"/><use transform="matrix(0.008463541666666668,0,0,0.008463541666666668,332.85416666666663,0)" xlink:href="#am"/><use transform="matrix(0.008463541666666668,0,0,0.008463541666666668,343.25585937499994,0)" xlink:href="#ac"/></g><path d="M713 0H515L10-1349h201C345-955 498-579 615-168c116-411 269-787 402-1181h201" id="aw"/><path d="M1018 0H814c-67-224-138-444-200-673C552-442 476-224 407 0H204L21-1082h178c43 310 105 601 126 933 54-225 128-425 193-638h193c63 212 134 415 185 638 22-336 90-622 136-933h176" id="ax"/><g id="n"><use transform="matrix(0.008463541666666668,0,0,0.008463541666666668,0,0)" xlink:href="#ah"/><use transform="matrix(0.008463541666666668,0,0,0.008463541666666668,10.401692708333334,0)" xlink:href="#ac"/><use transform="matrix(0.008463541666666668,0,0,0.008463541666666668,20.803385416666668,0)" xlink:href="#R"/><use transform="matrix(0.008463541666666668,0,0,0.008463541666666668,31.205078125,0)" xlink:href="#aj"/><use transform="matrix(0.008463541666666668,0,0,0.008463541666666668,41.606770833333336,0)" xlink:href="#aw"/><use transform="matrix(0.008463541666666668,0,0,0.008463541666666668,52.00846354166667,0)" xlink:href="#R"/><use transform="matrix(0.008463541666666668,0,0,0.008463541666666668,62.41015625000001,0)" xlink:href="#ab"/><use transform="matrix(0.008463541666666668,0,0,0.008463541666666668,72.81184895833334,0)" xlink:href="#ax"/><use transform="matrix(0.008463541666666668,0,0,0.008463541666666668,83.21354166666667,0)" xlink:href="#ad"/><use transform="matrix(0.008463541666666668,0,0,0.008463541666666668,93.615234375,0)" xlink:href="#at"/><use transform="matrix(0.008463541666666668,0,0,0.008463541666666668,104.01692708333333,0)" xlink:href="#ac"/><use transform="matrix(0.008463541666666668,0,0,0.008463541666666668,114.41861979166666,0)" xlink:href="#R"/><use transform="matrix(0.008463541666666668,0,0,0.008463541666666668,124.82031249999999,0)" xlink:href="#aj"/><use transform="matrix(0.008463541666666668,0,0,0.008463541666666668,135.22200520833331,0)" xlink:href="#aw"/><use transform="matrix(0.008463541666666668,0,0,0.008463541666666668,145.62369791666666,0)" xlink:href="#R"/><use transform="matrix(0.008463541666666668,0,0,0.008463541666666668,156.025390625,0)" xlink:href="#ab"/><use transform="matrix(0.008463541666666668,0,0,0.008463541666666668,166.42708333333334,0)" xlink:href="#ax"/></g><g id="o"><use transform="matrix(0.008463541666666668,0,0,0.008463541666666668,0,0)" xlink:href="#Q"/><use transform="matrix(0.008463541666666668,0,0,0.008463541666666668,10.401692708333334,0)" xlink:href="#aj"/><use transform="matrix(0.008463541666666668,0,0,0.008463541666666668,20.803385416666668,0)" xlink:href="#Q"/><use transform="matrix(0.008463541666666668,0,0,0.008463541666666668,31.205078125,0)" xlink:href="#aa"/><use transform="matrix(0.008463541666666668,0,0,0.008463541666666668,41.606770833333336,0)" xlink:href="#V"/><use transform="matrix(0.008463541666666668,0,0,0.008463541666666668,52.00846354166667,0)" xlink:href="#ab"/><use transform="matrix(0.008463541666666668,0,0,0.008463541666666668,62.41015625000001,0)" xlink:href="#ac"/><use transform="matrix(0.008463541666666668,0,0,0.008463541666666668,72.81184895833334,0)" xlink:href="#ad"/><use transform="matrix(0.008463541666666668,0,0,0.008463541666666668,83.21354166666667,0)" xlink:href="#at"/><use transform="matrix(0.008463541666666668,0,0,0.008463541666666668,93.615234375,0)" xlink:href="#ac"/><use transform="matrix(0.008463541666666668,0,0,0.008463541666666668,104.01692708333333,0)" xlink:href="#R"/><use transform="matrix(0.008463541666666668,0,0,0.008463541666666668,114.41861979166666,0)" xlink:href="#aj"/><use transform="matrix(0.008463541666666668,0,0,0.008463541666666668,124.82031249999999,0)" xlink:href="#T"/><use transform="matrix(0.008463541666666668,0,0,0.008463541666666668,135.22200520833331,0)" xlink:href="#aj"/><use transform="matrix(0.008463541666666668,0,0,0.008463541666666668,145.62369791666666,0)" xlink:href="#Q"/><use transform="matrix(0.008463541666666668,0,0,0.008463541666666668,156.025390625,0)" xlink:href="#aa"/><use transform="matrix(0.008463541666666668,0,0,0.008463541666666668,166.42708333333334,0)" xlink:href="#V"/><use transform="matrix(0.008463541666666668,0,0,0.008463541666666668,176.82877604166669,0)" xlink:href="#ab"/><use transform="matrix(0.008463541666666668,0,0,0.008463541666666668,187.23046875000003,0)" xlink:href="#ac"/></g><path d="M622-1349c296 4 497 117 497 404 0 282-193 424-485 431H353V0H162v-1349h460zm-15 684c195-3 320-88 320-277 0-184-129-255-328-254H353v531h254" id="ay"/><path d="M202-1349h823v156H709v1037h316V0H202v-156h316v-1037H202v-156" id="az"/><g id="p"><use transform="matrix(0.008463541666666668,0,0,0.008463541666666668,0,0)" xlink:href="#U"/><use transform="matrix(0.008463541666666668,0,0,0.008463541666666668,10.401692708333334,0)" xlink:href="#al"/><use transform="matrix(0.008463541666666668,0,0,0.008463541666666668,20.803385416666668,0)" xlink:href="#ac"/><use transform="matrix(0.008463541666666668,0,0,0.008463541666666668,31.205078125,0)" xlink:href="#ac"/><use transform="matrix(0.008463541666666668,0,0,0.008463541666666668,41.606770833333336,0)" xlink:href="#ab"/><use transform="matrix(0.008463541666666668,0,0,0.008463541666666668,52.00846354166667,0)" xlink:href="#S"/><use transform="matrix(0.008463541666666668,0,0,0.008463541666666668,62.41015625000001,0)" xlink:href="#V"/><use transform="matrix(0.008463541666666668,0,0,0.008463541666666668,72.81184895833334,0)" xlink:href="#ay"/><use transform="matrix(0.008463541666666668,0,0,0.008463541666666668,83.21354166666667,0)" xlink:href="#au"/><use transform="matrix(0.008463541666666668,0,0,0.008463541666666668,93.615234375,0)" xlink:href="#Q"/><use transform="matrix(0.008463541666666668,0,0,0.008463541666666668,104.01692708333333,0)" xlink:href="#X"/><use transform="matrix(0.008463541666666668,0,0,0.008463541666666668,114.41861979166666,0)" xlink:href="#ab"/><use transform="matrix(0.008463541666666668,0,0,0.008463541666666668,124.82031249999999,0)" xlink:href="#ac"/><use transform="matrix(0.008463541666666668,0,0,0.008463541666666668,135.22200520833331,0)" xlink:href="#aw"/><use transform="matrix(0.008463541666666668,0,0,0.008463541666666668,145.62369791666666,0)" xlink:href="#R"/><use transform="matrix(0.008463541666666668,0,0,0.008463541666666668,156.025390625,0)" xlink:href="#ab"/><use transform="matrix(0.008463541666666668,0,0,0.008463541666666668,166.42708333333334,0)" xlink:href="#ax"/><use transform="matrix(0.008463541666666668,0,0,0.008463541666666668,176.82877604166669,0)" xlink:href="#ad"/><use transform="matrix(0.008463541666666668,0,0,0.008463541666666668,187.23046875000003,0)" xlink:href="#U"/><use transform="matrix(0.008463541666666668,0,0,0.008463541666666668,197.63216145833337,0)" xlink:href="#al"/><use transform="matrix(0.008463541666666668,0,0,0.008463541666666668,208.0338541666667,0)" xlink:href="#ac"/><use transform="matrix(0.008463541666666668,0,0,0.008463541666666668,218.43554687500006,0)" xlink:href="#ac"/><use transform="matrix(0.008463541666666668,0,0,0.008463541666666668,228.8372395833334,0)" xlink:href="#ab"/><use transform="matrix(0.008463541666666668,0,0,0.008463541666666668,239.23893229166674,0)" xlink:href="#S"/><use transform="matrix(0.008463541666666668,0,0,0.008463541666666668,249.64062500000009,0)" xlink:href="#V"/><use transform="matrix(0.008463541666666668,0,0,0.008463541666666668,260.0423177083334,0)" xlink:href="#ay"/><use transform="matrix(0.008463541666666668,0,0,0.008463541666666668,270.44401041666674,0)" xlink:href="#au"/><use transform="matrix(0.008463541666666668,0,0,0.008463541666666668,280.84570312500006,0)" xlink:href="#Q"/><use transform="matrix(0.008463541666666668,0,0,0.008463541666666668,291.24739583333337,0)" xlink:href="#X"/><use transform="matrix(0.008463541666666668,0,0,0.008463541666666668,301.6490885416667,0)" xlink:href="#ab"/><use transform="matrix(0.008463541666666668,0,0,0.008463541666666668,312.05078125,0)" xlink:href="#ac"/><use transform="matrix(0.008463541666666668,0,0,0.008463541666666668,322.4524739583333,0)" xlink:href="#az"/><use transform="matrix(0.008463541666666668,0,0,0.008463541666666668,332.85416666666663,0)" xlink:href="#as"/><use transform="matrix(0.008463541666666668,0,0,0.008463541666666668,343.25585937499994,0)" xlink:href="#Q"/><use transform="matrix(0.008463541666666668,0,0,0.008463541666666668,353.65755208333326,0)" xlink:href="#ah"/><use transform="matrix(0.008463541666666668,0,0,0.008463541666666668,364.0592447916666,0)" xlink:href="#ab"/><use transform="matrix(0.008463541666666668,0,0,0.008463541666666668,374.4609374999999,0)" xlink:href="#aw"/><use transform="matrix(0.008463541666666668,0,0,0.008463541666666668,384.8626302083332,0)" xlink:href="#R"/><use transform="matrix(0.008463541666666668,0,0,0.008463541666666668,395.2643229166665,0)" xlink:href="#ab"/><use transform="matrix(0.008463541666666668,0,0,0.008463541666666668,405.66601562499983,0)" xlink:href="#ax"/></g><g id="q"><use transform="matrix(0.008463541666666668,0,0,0.008463541666666668,0,0)" xlink:href="#ax"/><use transform="matrix(0.008463541666666668,0,0,0.008463541666666668,10.401692708333334,0)" xlink:href="#R"/><use transform="matrix(0.008463541666666668,0,0,0.008463541666666668,20.803385416666668,0)" xlink:href="#S"/><use transform="matrix(0.008463541666666668,0,0,0.008463541666666668,31.205078125,0)" xlink:href="#S"/><use transform="matrix(0.008463541666666668,0,0,0.008463541666666668,41.606770833333336,0)" xlink:href="#ab"/><use transform="matrix(0.008463541666666668,0,0,0.008463541666666668,52.00846354166667,0)" xlink:href="#ac"/><use transform="matrix(0.008463541666666668,0,0,0.008463541666666668,62.41015625000001,0)" xlink:href="#aw"/><use transform="matrix(0.008463541666666668,0,0,0.008463541666666668,72.81184895833334,0)" xlink:href="#R"/><use transform="matrix(0.008463541666666668,0,0,0.008463541666666668,83.21354166666667,0)" xlink:href="#ab"/><use transform="matrix(0.008463541666666668,0,0,0.008463541666666668,93.615234375,0)" xlink:href="#ax"/><use transform="matrix(0.008463541666666668,0,0,0.008463541666666668,104.01692708333333,0)" xlink:href="#ad"/></g><g id="r"><use transform="matrix(0.008463541666666668,0,0,0.008463541666666668,0,0)" xlink:href="#ax"/><use transform="matrix(0.008463541666666668,0,0,0.008463541666666668,10.401692708333334,0)" xlink:href="#R"/><use transform="matrix(0.008463541666666668,0,0,0.008463541666666668,20.803385416666668,0)" xlink:href="#S"/><use transform="matrix(0.008463541666666668,0,0,0.008463541666666668,31.205078125,0)" xlink:href="#S"/><use transform="matrix(0.008463541666666668,0,0,0.008463541666666668,41.606770833333336,0)" xlink:href="#R"/><use transform="matrix(0.008463541666666668,0,0,0.008463541666666668,52.00846354166667,0)" xlink:href="#S"/><use transform="matrix(0.008463541666666668,0,0,0.008463541666666668,62.41015625000001,0)" xlink:href="#ah"/><use transform="matrix(0.008463541666666668,0,0,0.008463541666666668,72.81184895833334,0)" xlink:href="#ay"/><use transform="matrix(0.008463541666666668,0,0,0.008463541666666668,83.21354166666667,0)" xlink:href="#au"/><use transform="matrix(0.008463541666666668,0,0,0.008463541666666668,93.615234375,0)" xlink:href="#Q"/><use transform="matrix(0.008463541666666668,0,0,0.008463541666666668,104.01692708333333,0)" xlink:href="#X"/><use transform="matrix(0.008463541666666668,0,0,0.008463541666666668,114.41861979166666,0)" xlink:href="#ab"/><use transform="matrix(0.008463541666666668,0,0,0.008463541666666668,124.82031249999999,0)" xlink:href="#ac"/><use transform="matrix(0.008463541666666668,0,0,0.008463541666666668,135.22200520833331,0)" xlink:href="#az"/><use transform="matrix(0.008463541666666668,0,0,0.008463541666666668,145.62369791666666,0)" xlink:href="#as"/><use transform="matrix(0.008463541666666668,0,0,0.008463541666666668,156.025390625,0)" xlink:href="#Q"/><use transform="matrix(0.008463541666666668,0,0,0.008463541666666668,166.42708333333334,0)" xlink:href="#ah"/><use transform="matrix(0.008463541666666668,0,0,0.008463541666666668,176.82877604166669,0)" xlink:href="#ab"/><use transform="matrix(0.008463541666666668,0,0,0.008463541666666668,187.23046875000003,0)" xlink:href="#aw"/><use transform="matrix(0.008463541666666668,0,0,0.008463541666666668,197.63216145833337,0)" xlink:href="#R"/><use transform="matrix(0.008463541666666668,0,0,0.008463541666666668,208.0338541666667,0)" xlink:href="#ab"/><use transform="matrix(0.008463541666666668,0,0,0.008463541666666668,218.43554687500006,0)" xlink:href="#ax"/></g><path d="M932 0L611-444 288 0H94l415-556-397-526h199l300 421 298-421h201L713-558 1133 0H932" id="aA"/><g id="s"><use transform="matrix(0.008463541666666668,0,0,0.008463541666666668,0,0)" xlink:href="#ab"/><use transform="matrix(0.008463541666666668,0,0,0.008463541666666668,10.401692708333334,0)" xlink:href="#aA"/><use transform="matrix(0.008463541666666668,0,0,0.008463541666666668,20.803385416666668,0)" xlink:href="#R"/><use transform="matrix(0.008463541666666668,0,0,0.008463541666666668,31.205078125,0)" xlink:href="#V"/><use transform="matrix(0.008463541666666668,0,0,0.008463541666666668,41.606770833333336,0)" xlink:href="#ak"/><use transform="matrix(0.008463541666666668,0,0,0.008463541666666668,52.00846354166667,0)" xlink:href="#al"/><use transform="matrix(0.008463541666666668,0,0,0.008463541666666668,62.41015625000001,0)" xlink:href="#V"/><use transform="matrix(0.008463541666666668,0,0,0.008463541666666668,72.81184895833334,0)" xlink:href="#V"/><use transform="matrix(0.008463541666666668,0,0,0.008463541666666668,83.21354166666667,0)" xlink:href="#am"/><use transform="matrix(0.008463541666666668,0,0,0.008463541666666668,93.615234375,0)" xlink:href="#S"/><use transform="matrix(0.008463541666666668,0,0,0.008463541666666668,104.01692708333333,0)" xlink:href="#ad"/><use transform="matrix(0.008463541666666668,0,0,0.008463541666666668,114.41861979166666,0)" xlink:href="#ak"/><use transform="matrix(0.008463541666666668,0,0,0.008463541666666668,124.82031249999999,0)" xlink:href="#al"/><use transform="matrix(0.008463541666666668,0,0,0.008463541666666668,135.22200520833331,0)" xlink:href="#V"/><use transform="matrix(0.008463541666666668,0,0,0.008463541666666668,145.62369791666666,0)" xlink:href="#V"/><use transform="matrix(0.008463541666666668,0,0,0.008463541666666668,156.025390625,0)" xlink:href="#am"/><use transform="matrix(0.008463541666666668,0,0,0.008463541666666668,166.42708333333334,0)" xlink:href="#S"/></g><g id="t"><use transform="matrix(0.0087890625,0,0,0.0087890625,0,0)" xlink:href="#ao"/><use transform="matrix(0.0087890625,0,0,0.0087890625,10.8017578125,0)" xlink:href="#am"/><use transform="matrix(0.0087890625,0,0,0.0087890625,21.603515625,0)" xlink:href="#S"/><use transform="matrix(0.0087890625,0,0,0.0087890625,32.4052734375,0)" xlink:href="#ap"/><use transform="matrix(0.0087890625,0,0,0.0087890625,43.20703125,0)" xlink:href="#ac"/><use transform="matrix(0.0087890625,0,0,0.0087890625,54.0087890625,0)" xlink:href="#ab"/><use transform="matrix(0.0087890625,0,0,0.0087890625,64.810546875,0)" xlink:href="#Q"/><use transform="matrix(0.0087890625,0,0,0.0087890625,75.6123046875,0)" xlink:href="#V"/><use transform="matrix(0.0087890625,0,0,0.0087890625,86.4140625,0)" xlink:href="#ab"/><use transform="matrix(0.0087890625,0,0,0.0087890625,97.2158203125,0)" xlink:href="#aq"/><use transform="matrix(0.0087890625,0,0,0.0087890625,108.017578125,0)" xlink:href="#ar"/></g><use transform="matrix(0.0087890625,0,0,0.0087890625,0,0)" xlink:href="#Y" id="u"/><g id="v"><use transform="matrix(0.008463541666666668,0,0,0.008463541666666668,0,0)" xlink:href="#aa"/><use transform="matrix(0.008463541666666668,0,0,0.008463541666666668,10.401692708333334,0)" xlink:href="#au"/><use transform="matrix(0.008463541666666668,0,0,0.008463541666666668,20.803385416666668,0)" xlink:href="#Q"/><use transform="matrix(0.008463541666666668,0,0,0.008463541666666668,31.205078125,0)" xlink:href="#X"/><use transform="matrix(0.008463541666666668,0,0,0.008463541666666668,41.606770833333336,0)" xlink:href="#aq"/><use transform="matrix(0.008463541666666668,0,0,0.008463541666666668,52.00846354166667,0)" xlink:href="#aa"/><use transform="matrix(0.008463541666666668,0,0,0.008463541666666668,62.41015625000001,0)" xlink:href="#am"/><use transform="matrix(0.008463541666666668,0,0,0.008463541666666668,72.81184895833334,0)" xlink:href="#Z"/><use transform="matrix(0.008463541666666668,0,0,0.008463541666666668,83.21354166666667,0)" xlink:href="#R"/><use transform="matrix(0.008463541666666668,0,0,0.008463541666666668,93.615234375,0)" xlink:href="#V"/><use transform="matrix(0.008463541666666668,0,0,0.008463541666666668,104.01692708333333,0)" xlink:href="#R"/><use transform="matrix(0.008463541666666668,0,0,0.008463541666666668,114.41861979166666,0)" xlink:href="#am"/><use transform="matrix(0.008463541666666668,0,0,0.008463541666666668,124.82031249999999,0)" xlink:href="#S"/><use transform="matrix(0.008463541666666668,0,0,0.008463541666666668,135.22200520833331,0)" xlink:href="#ar"/></g><g id="w"><use transform="matrix(0.0087890625,0,0,0.0087890625,0,0)" xlink:href="#at"/><use transform="matrix(0.0087890625,0,0,0.0087890625,10.8017578125,0)" xlink:href="#ac"/><use transform="matrix(0.0087890625,0,0,0.0087890625,21.603515625,0)" xlink:href="#R"/><use transform="matrix(0.0087890625,0,0,0.0087890625,32.4052734375,0)" xlink:href="#aj"/><use transform="matrix(0.0087890625,0,0,0.0087890625,43.20703125,0)" xlink:href="#T"/><use transform="matrix(0.0087890625,0,0,0.0087890625,54.0087890625,0)" xlink:href="#aj"/><use transform="matrix(0.0087890625,0,0,0.0087890625,64.810546875,0)" xlink:href="#Q"/><use transform="matrix(0.0087890625,0,0,0.0087890625,75.6123046875,0)" xlink:href="#aa"/><use transform="matrix(0.0087890625,0,0,0.0087890625,86.4140625,0)" xlink:href="#V"/><use transform="matrix(0.0087890625,0,0,0.0087890625,97.2158203125,0)" xlink:href="#ab"/><use transform="matrix(0.0087890625,0,0,0.0087890625,108.017578125,0)" xlink:href="#ac"/></g><use transform="matrix(0.0087890625,0,0,0.0087890625,0,0)" xlink:href="#Y" id="x"/><path d="M473-1349c438-1 655 221 652 661C1122-268 945-8 532 0H162v-1349h311zm42 1193c308-4 416-205 418-532 2-330-131-509-459-505H353v1037h162" id="aB"/><path d="M914 0L548-499l-132 98V0H236v-1484h180v927l475-525h211L663-617 1125 0H914" id="aC"/><g id="y"><use transform="matrix(0.0087890625,0,0,0.0087890625,0,0)" xlink:href="#as"/><use transform="matrix(0.0087890625,0,0,0.0087890625,10.8017578125,0)" xlink:href="#aB"/><use transform="matrix(0.0087890625,0,0,0.0087890625,21.603515625,0)" xlink:href="#Q"/><use transform="matrix(0.0087890625,0,0,0.0087890625,32.4052734375,0)" xlink:href="#V"/><use transform="matrix(0.0087890625,0,0,0.0087890625,43.20703125,0)" xlink:href="#Q"/><use transform="matrix(0.0087890625,0,0,0.0087890625,54.0087890625,0)" xlink:href="#ad"/><use transform="matrix(0.008463541666666668,0,0,0.008463541666666668,64.810546875,0)" xlink:href="#T"/><use transform="matrix(0.008463541666666668,0,0,0.008463541666666668,75.21223958333333,0)" xlink:href="#ac"/><use transform="matrix(0.008463541666666668,0,0,0.008463541666666668,85.61393229166666,0)" xlink:href="#ac"/><use transform="matrix(0.008463541666666668,0,0,0.008463541666666668,96.01562499999999,0)" xlink:href="#Q"/><use transform="matrix(0.008463541666666668,0,0,0.008463541666666668,106.41731770833331,0)" xlink:href="#X"/><use transform="matrix(0.008463541666666668,0,0,0.008463541666666668,116.81901041666664,0)" xlink:href="#ae"/><use transform="matrix(0.008463541666666668,0,0,0.008463541666666668,127.22070312499997,0)" xlink:href="#R"/><use transform="matrix(0.008463541666666668,0,0,0.008463541666666668,137.62239583333331,0)" xlink:href="#Z"/><use transform="matrix(0.008463541666666668,0,0,0.008463541666666668,148.02408854166663,0)" xlink:href="#V"/><use transform="matrix(0.008463541666666668,0,0,0.008463541666666668,158.42578125,0)" xlink:href="#af"/><use transform="matrix(0.008463541666666668,0,0,0.008463541666666668,168.82747395833334,0)" xlink:href="#as"/><use transform="matrix(0.008463541666666668,0,0,0.008463541666666668,179.22916666666669,0)" xlink:href="#Q"/><use transform="matrix(0.008463541666666668,0,0,0.008463541666666668,189.63085937500003,0)" xlink:href="#ac"/><use transform="matrix(0.008463541666666668,0,0,0.008463541666666668,200.03255208333337,0)" xlink:href="#aC"/><use transform="matrix(0.008463541666666668,0,0,0.008463541666666668,210.4342447916667,0)" xlink:href="#ab"/><use transform="matrix(0.008463541666666668,0,0,0.008463541666666668,220.83593750000006,0)" xlink:href="#ac"/><use transform="matrix(0.008463541666666668,0,0,0.008463541666666668,231.2376302083334,0)" xlink:href="#ai"/></g><path d="M687-608v428H540v-428H116v-146h424v-428h147v428h424v146H687" id="aD"/><use transform="matrix(0.0087890625,0,0,0.0087890625,0,0)" xlink:href="#aD" id="z"/><path d="M259 363l169-662h265L382 363H259" id="aE"/><g id="A"><use transform="matrix(0.008463541666666668,0,0,0.008463541666666668,0,0)" xlink:href="#at"/><use transform="matrix(0.008463541666666668,0,0,0.008463541666666668,10.401692708333334,0)" xlink:href="#ac"/><use transform="matrix(0.008463541666666668,0,0,0.008463541666666668,20.803385416666668,0)" xlink:href="#R"/><use transform="matrix(0.008463541666666668,0,0,0.008463541666666668,31.205078125,0)" xlink:href="#aj"/><use transform="matrix(0.008463541666666668,0,0,0.008463541666666668,41.606770833333336,0)" xlink:href="#T"/><use transform="matrix(0.008463541666666668,0,0,0.008463541666666668,52.00846354166667,0)" xlink:href="#aj"/><use transform="matrix(0.008463541666666668,0,0,0.008463541666666668,62.41015625000001,0)" xlink:href="#Q"/><use transform="matrix(0.008463541666666668,0,0,0.008463541666666668,72.81184895833334,0)" xlink:href="#aa"/><use transform="matrix(0.008463541666666668,0,0,0.008463541666666668,83.21354166666667,0)" xlink:href="#V"/><use transform="matrix(0.008463541666666668,0,0,0.008463541666666668,93.615234375,0)" xlink:href="#ab"/><use transform="matrix(0.008463541666666668,0,0,0.008463541666666668,104.01692708333333,0)" xlink:href="#ac"/><use transform="matrix(0.008463541666666668,0,0,0.008463541666666668,114.41861979166666,0)" xlink:href="#aq"/><use transform="matrix(0.008463541666666668,0,0,0.008463541666666668,124.82031249999999,0)" xlink:href="#U"/><use transform="matrix(0.008463541666666668,0,0,0.008463541666666668,135.22200520833331,0)" xlink:href="#am"/><use transform="matrix(0.008463541666666668,0,0,0.008463541666666668,145.62369791666666,0)" xlink:href="#S"/><use transform="matrix(0.008463541666666668,0,0,0.008463541666666668,156.025390625,0)" xlink:href="#V"/><use transform="matrix(0.008463541666666668,0,0,0.008463541666666668,166.42708333333334,0)" xlink:href="#ab"/><use transform="matrix(0.008463541666666668,0,0,0.008463541666666668,176.82877604166669,0)" xlink:href="#aA"/><use transform="matrix(0.008463541666666668,0,0,0.008463541666666668,187.23046875000003,0)" xlink:href="#V"/><use transform="matrix(0.008463541666666668,0,0,0.008463541666666668,197.63216145833337,0)" xlink:href="#aE"/></g><g id="B"><use transform="matrix(0.008463541666666668,0,0,0.008463541666666668,0,0)" xlink:href="#ac"/><use transform="matrix(0.008463541666666668,0,0,0.008463541666666668,10.401692708333334,0)" xlink:href="#ab"/><use transform="matrix(0.008463541666666668,0,0,0.008463541666666668,20.803385416666668,0)" xlink:href="#Z"/><use transform="matrix(0.008463541666666668,0,0,0.008463541666666668,31.205078125,0)" xlink:href="#am"/><use transform="matrix(0.008463541666666668,0,0,0.008463541666666668,41.606770833333336,0)" xlink:href="#al"/><use transform="matrix(0.008463541666666668,0,0,0.008463541666666668,52.00846354166667,0)" xlink:href="#ac"/><use transform="matrix(0.008463541666666668,0,0,0.008463541666666668,62.41015625000001,0)" xlink:href="#U"/><use transform="matrix(0.008463541666666668,0,0,0.008463541666666668,72.81184895833334,0)" xlink:href="#ab"/><use transform="matrix(0.008463541666666668,0,0,0.008463541666666668,83.21354166666667,0)" xlink:href="#ar"/></g><path d="M648-963c-190 6-283 138-283 336V0H185v-1484h181c-2 197 6 404-9 587h3c62-120 159-205 339-205 242 0 351 135 350 381V0H868v-695c1-168-57-273-220-268" id="aF"/><g id="C"><use transform="matrix(0.008463541666666668,0,0,0.008463541666666668,0,0)" xlink:href="#Z"/><use transform="matrix(0.008463541666666668,0,0,0.008463541666666668,10.401692708333334,0)" xlink:href="#ab"/><use transform="matrix(0.008463541666666668,0,0,0.008463541666666668,20.803385416666668,0)" xlink:href="#V"/><use transform="matrix(0.008463541666666668,0,0,0.008463541666666668,31.205078125,0)" xlink:href="#aw"/><use transform="matrix(0.008463541666666668,0,0,0.008463541666666668,41.606770833333336,0)" xlink:href="#R"/><use transform="matrix(0.008463541666666668,0,0,0.008463541666666668,52.00846354166667,0)" xlink:href="#ab"/><use transform="matrix(0.008463541666666668,0,0,0.008463541666666668,62.41015625000001,0)" xlink:href="#ax"/><use transform="matrix(0.008463541666666668,0,0,0.008463541666666668,72.81184895833334,0)" xlink:href="#aB"/><use transform="matrix(0.008463541666666668,0,0,0.008463541666666668,83.21354166666667,0)" xlink:href="#R"/><use transform="matrix(0.008463541666666668,0,0,0.008463541666666668,93.615234375,0)" xlink:href="#as"/><use transform="matrix(0.008463541666666668,0,0,0.008463541666666668,104.01692708333333,0)" xlink:href="#ab"/><use transform="matrix(0.008463541666666668,0,0,0.008463541666666668,114.41861979166666,0)" xlink:href="#S"/><use transform="matrix(0.008463541666666668,0,0,0.008463541666666668,124.82031249999999,0)" xlink:href="#Z"/><use transform="matrix(0.008463541666666668,0,0,0.008463541666666668,135.22200520833331,0)" xlink:href="#R"/><use transform="matrix(0.008463541666666668,0,0,0.008463541666666668,145.62369791666666,0)" xlink:href="#am"/><use transform="matrix(0.008463541666666668,0,0,0.008463541666666668,156.025390625,0)" xlink:href="#S"/><use transform="matrix(0.008463541666666668,0,0,0.008463541666666668,166.42708333333334,0)" xlink:href="#Z"/><use transform="matrix(0.008463541666666668,0,0,0.008463541666666668,176.82877604166669,0)" xlink:href="#aq"/><use transform="matrix(0.008463541666666668,0,0,0.008463541666666668,187.23046875000003,0)" xlink:href="#ax"/><use transform="matrix(0.008463541666666668,0,0,0.008463541666666668,197.63216145833337,0)" xlink:href="#R"/><use transform="matrix(0.008463541666666668,0,0,0.008463541666666668,208.0338541666667,0)" xlink:href="#aj"/><use transform="matrix(0.008463541666666668,0,0,0.008463541666666668,218.43554687500006,0)" xlink:href="#V"/><use transform="matrix(0.008463541666666668,0,0,0.008463541666666668,228.8372395833334,0)" xlink:href="#aF"/><use transform="matrix(0.008463541666666668,0,0,0.008463541666666668,239.23893229166674,0)" xlink:href="#aE"/></g><g id="D"><use transform="matrix(0.008463541666666668,0,0,0.008463541666666668,0,0)" xlink:href="#aF"/><use transform="matrix(0.008463541666666668,0,0,0.008463541666666668,10.401692708333334,0)" xlink:href="#ab"/><use transform="matrix(0.008463541666666668,0,0,0.008463541666666668,20.803385416666668,0)" xlink:href="#R"/><use transform="matrix(0.008463541666666668,0,0,0.008463541666666668,31.205078125,0)" xlink:href="#ah"/><use transform="matrix(0.008463541666666668,0,0,0.008463541666666668,41.606770833333336,0)" xlink:href="#aF"/><use transform="matrix(0.008463541666666668,0,0,0.008463541666666668,52.00846354166667,0)" xlink:href="#V"/><use transform="matrix(0.008463541666666668,0,0,0.008463541666666668,62.41015625000001,0)" xlink:href="#ar"/></g><use transform="matrix(0.0087890625,0,0,0.0087890625,0,0)" xlink:href="#aD" id="E"/><g id="F"><use transform="matrix(0.0087890625,0,0,0.0087890625,0,0)" xlink:href="#Z"/><use transform="matrix(0.0087890625,0,0,0.0087890625,10.8017578125,0)" xlink:href="#ab"/><use transform="matrix(0.0087890625,0,0,0.0087890625,21.603515625,0)" xlink:href="#V"/><use transform="matrix(0.0087890625,0,0,0.0087890625,32.4052734375,0)" xlink:href="#T"/><use transform="matrix(0.0087890625,0,0,0.0087890625,43.20703125,0)" xlink:href="#au"/><use transform="matrix(0.0087890625,0,0,0.0087890625,54.0087890625,0)" xlink:href="#au"/><use transform="matrix(0.0087890625,0,0,0.0087890625,64.810546875,0)" xlink:href="#aq"/><use transform="matrix(0.008463541666666668,0,0,0.008463541666666668,75.6123046875,0)" xlink:href="#T"/><use transform="matrix(0.008463541666666668,0,0,0.008463541666666668,86.01399739583333,0)" xlink:href="#ac"/><use transform="matrix(0.008463541666666668,0,0,0.008463541666666668,96.41569010416666,0)" xlink:href="#ac"/><use transform="matrix(0.008463541666666668,0,0,0.008463541666666668,106.81738281249999,0)" xlink:href="#Q"/><use transform="matrix(0.008463541666666668,0,0,0.008463541666666668,117.21907552083331,0)" xlink:href="#X"/><use transform="matrix(0.008463541666666668,0,0,0.008463541666666668,127.62076822916664,0)" xlink:href="#ae"/><use transform="matrix(0.008463541666666668,0,0,0.008463541666666668,138.02246093749997,0)" xlink:href="#R"/><use transform="matrix(0.008463541666666668,0,0,0.008463541666666668,148.42415364583331,0)" xlink:href="#Z"/><use transform="matrix(0.008463541666666668,0,0,0.008463541666666668,158.82584635416669,0)" xlink:href="#V"/><use transform="matrix(0.008463541666666668,0,0,0.008463541666666668,169.2275390625,0)" xlink:href="#af"/><use transform="matrix(0.008463541666666668,0,0,0.008463541666666668,179.62923177083334,0)" xlink:href="#ap"/><use transform="matrix(0.008463541666666668,0,0,0.008463541666666668,190.03092447916669,0)" xlink:href="#aF"/><use transform="matrix(0.008463541666666668,0,0,0.008463541666666668,200.43261718750003,0)" xlink:href="#R"/><use transform="matrix(0.008463541666666668,0,0,0.008463541666666668,210.83430989583337,0)" xlink:href="#aa"/><use transform="matrix(0.008463541666666668,0,0,0.008463541666666668,221.2360026041667,0)" xlink:href="#ai"/><use transform="matrix(0.008463541666666668,0,0,0.008463541666666668,231.63769531250006,0)" xlink:href="#ar"/></g><g id="G"><use transform="matrix(0.0087890625,0,0,0.0087890625,0,0)" xlink:href="#ao"/><use transform="matrix(0.008463541666666668,0,0,0.008463541666666668,10.801757812499998,0)" xlink:href="#ah"/><use transform="matrix(0.008463541666666668,0,0,0.008463541666666668,21.203450520833332,0)" xlink:href="#ab"/><use transform="matrix(0.008463541666666668,0,0,0.008463541666666668,31.60514322916667,0)" xlink:href="#V"/><use transform="matrix(0.008463541666666668,0,0,0.008463541666666668,42.0068359375,0)" xlink:href="#aw"/><use transform="matrix(0.008463541666666668,0,0,0.008463541666666668,52.40852864583334,0)" xlink:href="#R"/><use transform="matrix(0.008463541666666668,0,0,0.008463541666666668,62.81022135416668,0)" xlink:href="#ab"/><use transform="matrix(0.008463541666666668,0,0,0.008463541666666668,73.21191406250001,0)" xlink:href="#ax"/><use transform="matrix(0.008463541666666668,0,0,0.008463541666666668,83.61360677083334,0)" xlink:href="#aq"/><use transform="matrix(0.008463541666666668,0,0,0.008463541666666668,94.01529947916667,0)" xlink:href="#aa"/><use transform="matrix(0.008463541666666668,0,0,0.008463541666666668,104.4169921875,0)" xlink:href="#am"/><use transform="matrix(0.008463541666666668,0,0,0.008463541666666668,114.81868489583333,0)" xlink:href="#Z"/><use transform="matrix(0.008463541666666668,0,0,0.008463541666666668,125.22037760416666,0)" xlink:href="#R"/><use transform="matrix(0.008463541666666668,0,0,0.008463541666666668,135.6220703125,0)" xlink:href="#V"/><use transform="matrix(0.008463541666666668,0,0,0.008463541666666668,146.02376302083334,0)" xlink:href="#R"/><use transform="matrix(0.008463541666666668,0,0,0.008463541666666668,156.42545572916669,0)" xlink:href="#am"/><use transform="matrix(0.008463541666666668,0,0,0.008463541666666668,166.82714843750003,0)" xlink:href="#S"/><use transform="matrix(0.008463541666666668,0,0,0.008463541666666668,177.2288411458334,0)" xlink:href="#aE"/></g><g id="H"><use transform="matrix(0.008463541666666668,0,0,0.008463541666666668,0,0)" xlink:href="#U"/><use transform="matrix(0.008463541666666668,0,0,0.008463541666666668,10.401692708333334,0)" xlink:href="#am"/><use transform="matrix(0.008463541666666668,0,0,0.008463541666666668,20.803385416666668,0)" xlink:href="#S"/><use transform="matrix(0.008463541666666668,0,0,0.008463541666666668,31.205078125,0)" xlink:href="#W"/><use transform="matrix(0.008463541666666668,0,0,0.008463541666666668,41.606770833333336,0)" xlink:href="#ab"/><use transform="matrix(0.008463541666666668,0,0,0.008463541666666668,52.00846354166667,0)" xlink:href="#ac"/><use transform="matrix(0.008463541666666668,0,0,0.008463541666666668,62.41015625000001,0)" xlink:href="#V"/><use transform="matrix(0.008463541666666668,0,0,0.008463541666666668,72.81184895833334,0)" xlink:href="#aw"/><use transform="matrix(0.008463541666666668,0,0,0.008463541666666668,83.21354166666667,0)" xlink:href="#R"/><use transform="matrix(0.008463541666666668,0,0,0.008463541666666668,93.615234375,0)" xlink:href="#ab"/><use transform="matrix(0.008463541666666668,0,0,0.008463541666666668,104.01692708333333,0)" xlink:href="#ax"/><use transform="matrix(0.008463541666666668,0,0,0.008463541666666668,114.41861979166666,0)" xlink:href="#aE"/></g><g id="I"><use transform="matrix(0.008463541666666668,0,0,0.008463541666666668,0,0)" xlink:href="#aa"/><use transform="matrix(0.008463541666666668,0,0,0.008463541666666668,10.401692708333334,0)" xlink:href="#Q"/><use transform="matrix(0.008463541666666668,0,0,0.008463541666666668,20.803385416666668,0)" xlink:href="#ac"/><use transform="matrix(0.008463541666666668,0,0,0.008463541666666668,31.205078125,0)" xlink:href="#ab"/><use transform="matrix(0.008463541666666668,0,0,0.008463541666666668,41.606770833333336,0)" xlink:href="#S"/><use transform="matrix(0.008463541666666668,0,0,0.008463541666666668,52.00846354166667,0)" xlink:href="#V"/><use transform="matrix(0.008463541666666668,0,0,0.008463541666666668,62.41015625000001,0)" xlink:href="#ar"/><use transform="matrix(0.008463541666666668,0,0,0.008463541666666668,72.81184895833334,0)" xlink:href="#ad"/><use transform="matrix(0.008463541666666668,0,0,0.008463541666666668,83.21354166666667,0)" xlink:href="#W"/><use transform="matrix(0.008463541666666668,0,0,0.008463541666666668,93.615234375,0)" xlink:href="#R"/><use transform="matrix(0.008463541666666668,0,0,0.008463541666666668,104.01692708333333,0)" xlink:href="#ab"/><use transform="matrix(0.008463541666666668,0,0,0.008463541666666668,114.41861979166666,0)" xlink:href="#ax"/></g><g id="J"><use transform="matrix(0.0087890625,0,0,0.0087890625,0,0)" xlink:href="#T"/><use transform="matrix(0.0087890625,0,0,0.0087890625,10.8017578125,0)" xlink:href="#ac"/><use transform="matrix(0.0087890625,0,0,0.0087890625,21.603515625,0)" xlink:href="#ac"/><use transform="matrix(0.0087890625,0,0,0.0087890625,32.4052734375,0)" xlink:href="#Q"/><use transform="matrix(0.0087890625,0,0,0.0087890625,43.20703125,0)" xlink:href="#X"/><use transform="matrix(0.0087890625,0,0,0.0087890625,54.0087890625,0)" xlink:href="#T"/><use transform="matrix(0.0087890625,0,0,0.0087890625,64.810546875,0)" xlink:href="#aj"/><use transform="matrix(0.0087890625,0,0,0.0087890625,75.6123046875,0)" xlink:href="#Q"/><use transform="matrix(0.0087890625,0,0,0.0087890625,86.4140625,0)" xlink:href="#aa"/><use transform="matrix(0.0087890625,0,0,0.0087890625,97.2158203125,0)" xlink:href="#V"/><use transform="matrix(0.0087890625,0,0,0.0087890625,108.017578125,0)" xlink:href="#ab"/><use transform="matrix(0.0087890625,0,0,0.0087890625,118.8193359375,0)" xlink:href="#ac"/></g><g id="K"><use transform="matrix(0.0087890625,0,0,0.0087890625,0,0)" xlink:href="#ak"/><use transform="matrix(0.0087890625,0,0,0.0087890625,10.8017578125,0)" xlink:href="#al"/><use transform="matrix(0.0087890625,0,0,0.0087890625,21.603515625,0)" xlink:href="#V"/><use transform="matrix(0.0087890625,0,0,0.0087890625,32.4052734375,0)" xlink:href="#V"/><use transform="matrix(0.0087890625,0,0,0.0087890625,43.20703125,0)" xlink:href="#am"/><use transform="matrix(0.0087890625,0,0,0.0087890625,54.0087890625,0)" xlink:href="#S"/></g><g id="L"><use transform="matrix(0.008463541666666668,0,0,0.008463541666666668,0,0)" xlink:href="#T"/><use transform="matrix(0.008463541666666668,0,0,0.008463541666666668,10.401692708333334,0)" xlink:href="#S"/><use transform="matrix(0.008463541666666668,0,0,0.008463541666666668,20.803385416666668,0)" xlink:href="#aj"/><use transform="matrix(0.008463541666666668,0,0,0.008463541666666668,31.205078125,0)" xlink:href="#ac"/><use transform="matrix(0.008463541666666668,0,0,0.008463541666666668,41.606770833333336,0)" xlink:href="#am"/><use transform="matrix(0.008463541666666668,0,0,0.008463541666666668,52.00846354166667,0)" xlink:href="#R"/><use transform="matrix(0.008463541666666668,0,0,0.008463541666666668,62.41015625000001,0)" xlink:href="#aj"/><use transform="matrix(0.008463541666666668,0,0,0.008463541666666668,72.81184895833334,0)" xlink:href="#av"/><use transform="matrix(0.008463541666666668,0,0,0.008463541666666668,83.21354166666667,0)" xlink:href="#am"/><use transform="matrix(0.008463541666666668,0,0,0.008463541666666668,93.615234375,0)" xlink:href="#at"/><use transform="matrix(0.008463541666666668,0,0,0.008463541666666668,104.01692708333333,0)" xlink:href="#Q"/><use transform="matrix(0.008463541666666668,0,0,0.008463541666666668,114.41861979166666,0)" xlink:href="#as"/><use transform="matrix(0.008463541666666668,0,0,0.008463541666666668,124.82031249999999,0)" xlink:href="#ab"/><use transform="matrix(0.008463541666666668,0,0,0.008463541666666668,135.22200520833331,0)" xlink:href="#av"/><use transform="matrix(0.008463541666666668,0,0,0.008463541666666668,145.62369791666666,0)" xlink:href="#ac"/><use transform="matrix(0.008463541666666668,0,0,0.008463541666666668,156.025390625,0)" xlink:href="#Q"/><use transform="matrix(0.008463541666666668,0,0,0.008463541666666668,166.42708333333334,0)" xlink:href="#S"/><use transform="matrix(0.008463541666666668,0,0,0.008463541666666668,176.82877604166669,0)" xlink:href="#Z"/><use transform="matrix(0.008463541666666668,0,0,0.008463541666666668,187.23046875000003,0)" xlink:href="#au"/><use transform="matrix(0.008463541666666668,0,0,0.008463541666666668,197.63216145833337,0)" xlink:href="#Q"/><use transform="matrix(0.008463541666666668,0,0,0.008463541666666668,208.0338541666667,0)" xlink:href="#V"/><use transform="matrix(0.008463541666666668,0,0,0.008463541666666668,218.43554687500006,0)" xlink:href="#am"/><use transform="matrix(0.008463541666666668,0,0,0.008463541666666668,228.8372395833334,0)" xlink:href="#ac"/></g><g id="M"><use transform="matrix(0.008463541666666668,0,0,0.008463541666666668,0,0)" xlink:href="#Q"/><use transform="matrix(0.008463541666666668,0,0,0.008463541666666668,10.401692708333334,0)" xlink:href="#S"/><use transform="matrix(0.008463541666666668,0,0,0.008463541666666668,20.803385416666668,0)" xlink:href="#aj"/><use transform="matrix(0.008463541666666668,0,0,0.008463541666666668,31.205078125,0)" xlink:href="#ac"/><use transform="matrix(0.008463541666666668,0,0,0.008463541666666668,41.606770833333336,0)" xlink:href="#am"/><use transform="matrix(0.008463541666666668,0,0,0.008463541666666668,52.00846354166667,0)" xlink:href="#R"/><use transform="matrix(0.008463541666666668,0,0,0.008463541666666668,62.41015625000001,0)" xlink:href="#aj"/><use transform="matrix(0.008463541666666668,0,0,0.008463541666666668,72.81184895833334,0)" xlink:href="#av"/><use transform="matrix(0.008463541666666668,0,0,0.008463541666666668,83.21354166666667,0)" xlink:href="#am"/><use transform="matrix(0.008463541666666668,0,0,0.008463541666666668,93.615234375,0)" xlink:href="#ak"/><use transform="matrix(0.008463541666666668,0,0,0.008463541666666668,104.01692708333333,0)" xlink:href="#am"/><use transform="matrix(0.008463541666666668,0,0,0.008463541666666668,114.41861979166666,0)" xlink:href="#Q"/><use transform="matrix(0.008463541666666668,0,0,0.008463541666666668,124.82031249999999,0)" xlink:href="#ac"/><use transform="matrix(0.008463541666666668,0,0,0.008463541666666668,135.22200520833331,0)" xlink:href="#aj"/><use transform="matrix(0.008463541666666668,0,0,0.008463541666666668,145.62369791666666,0)" xlink:href="#aq"/><use transform="matrix(0.008463541666666668,0,0,0.008463541666666668,156.025390625,0)" xlink:href="#Q"/><use transform="matrix(0.008463541666666668,0,0,0.008463541666666668,166.42708333333334,0)" xlink:href="#S"/><use transform="matrix(0.008463541666666668,0,0,0.008463541666666668,176.82877604166669,0)" xlink:href="#aj"/><use transform="matrix(0.008463541666666668,0,0,0.008463541666666668,187.23046875000003,0)" xlink:href="#ac"/><use transform="matrix(0.008463541666666668,0,0,0.008463541666666668,197.63216145833337,0)" xlink:href="#am"/><use transform="matrix(0.008463541666666668,0,0,0.008463541666666668,208.0338541666667,0)" xlink:href="#R"/><use transform="matrix(0.008463541666666668,0,0,0.008463541666666668,218.43554687500006,0)" xlink:href="#aj"/><use transform="matrix(0.008463541666666668,0,0,0.008463541666666668,228.8372395833334,0)" xlink:href="#ay"/><use transform="matrix(0.008463541666666668,0,0,0.008463541666666668,239.23893229166674,0)" xlink:href="#am"/><use transform="matrix(0.008463541666666668,0,0,0.008463541666666668,249.64062500000009,0)" xlink:href="#Z"/><use transform="matrix(0.008463541666666668,0,0,0.008463541666666668,260.0423177083334,0)" xlink:href="#R"/><use transform="matrix(0.008463541666666668,0,0,0.008463541666666668,270.44401041666674,0)" xlink:href="#V"/><use transform="matrix(0.008463541666666668,0,0,0.008463541666666668,280.84570312500006,0)" xlink:href="#R"/><use transform="matrix(0.008463541666666668,0,0,0.008463541666666668,291.24739583333337,0)" xlink:href="#am"/><use transform="matrix(0.008463541666666668,0,0,0.008463541666666668,301.6490885416667,0)" xlink:href="#S"/><use transform="matrix(0.008463541666666668,0,0,0.008463541666666668,312.05078125,0)" xlink:href="#ar"/><use transform="matrix(0.008463541666666668,0,0,0.008463541666666668,322.4524739583333,0)" xlink:href="#ad"/></g><path d="M410 425v-1909h547v139H590V286h367v139H410" id="aG"/><path d="M270 425V286h367v-1631H270v-139h547V425H270" id="aH"/><path d="M677 91c1 136 41 195 171 195h213v139H796c-186-8-294-116-294-303v-351c-3-164-120-222-275-232v-137c155-10 275-69 275-231v-352c6-189 106-303 294-303h265v139H848c-126-3-171 67-171 195v346c-5 158-108 234-231 274 128 36 231 115 231 274V91" id="aI"/><path d="M726 122c-7 187-108 303-294 303H167V286h213c129-2 172-59 172-195v-347c5-160 106-236 230-276-125-36-230-116-230-272v-346c2-128-45-195-172-195H167v-139h265c187 7 294 114 294 303v352c4 162 120 221 275 231v137c-155 10-275 68-275 232v351" id="aJ"/><g id="O"><use transform="matrix(0.008463541666666668,0,0,0.008463541666666668,0,0)" xlink:href="#R"/><use transform="matrix(0.008463541666666668,0,0,0.008463541666666668,10.401692708333334,0)" xlink:href="#S"/><use transform="matrix(0.008463541666666668,0,0,0.008463541666666668,20.803385416666668,0)" xlink:href="#V"/><use transform="matrix(0.008463541666666668,0,0,0.008463541666666668,31.205078125,0)" xlink:href="#aG"/><use transform="matrix(0.008463541666666668,0,0,0.008463541666666668,41.606770833333336,0)" xlink:href="#aH"/><use transform="matrix(0.008463541666666668,0,0,0.008463541666666668,52.00846354166667,0)" xlink:href="#aI"/><use transform="matrix(0.008463541666666668,0,0,0.008463541666666668,62.41015625000001,0)" xlink:href="#ac"/><use transform="matrix(0.008463541666666668,0,0,0.008463541666666668,72.81184895833334,0)" xlink:href="#am"/><use transform="matrix(0.008463541666666668,0,0,0.008463541666666668,83.21354166666667,0)" xlink:href="#ax"/><use transform="matrix(0.008463541666666668,0,0,0.008463541666666668,93.615234375,0)" xlink:href="#aE"/><use transform="matrix(0.008463541666666668,0,0,0.008463541666666668,104.01692708333333,0)" xlink:href="#U"/><use transform="matrix(0.008463541666666668,0,0,0.008463541666666668,114.41861979166666,0)" xlink:href="#am"/><use transform="matrix(0.008463541666666668,0,0,0.008463541666666668,124.82031249999999,0)" xlink:href="#au"/><use transform="matrix(0.008463541666666668,0,0,0.008463541666666668,135.22200520833331,0)" xlink:href="#aJ"/></g></defs></g></svg>